<svg xmlns="http://www.w3.org/2000/svg" xmlns:xlink="http://www.w3.org/1999/xlink" width="940" zoomAndPan="magnify" viewBox="0 0 705 532.499984" height="710" preserveAspectRatio="xMidYMid meet" version="1.0"><defs><g/><clipPath id="ce179fd594"><path d="M 0.175781 38 L 45 38 L 45 157 L 0.175781 157 Z M 0.175781 38 " clip-rule="nonzero"/></clipPath><clipPath id="0b357f9418"><rect x="0" width="60" y="0" height="209"/></clipPath><clipPath id="08d13abbf1"><rect x="0" width="95" y="0" height="209"/></clipPath><clipPath id="b175756287"><rect x="0" width="590" y="0" height="44"/></clipPath></defs><g transform="matrix(1, 0, 0, 1, 291, 99)"><g clip-path="url(#0b357f9418)"><g clip-path="url(#ce179fd594)"><g fill="currentColor" fill-opacity="1"><g transform="translate(0.355908, 155.038427)"><g><path d="M 44.25 -116.859375 L 44.25 -26.21875 C 44.25 -15.75 42.242188 -8.484375 38.234375 -4.421875 C 34.222656 -0.359375 27.710938 1.671875 18.703125 1.671875 C 14.140625 1.671875 10.328125 0.894531 7.265625 -0.65625 C 4.203125 -2.21875 1.890625 -3.722656 0.328125 -5.171875 L 1.171875 -6.671875 C 3.734375 -4.453125 6.457031 -2.976562 9.34375 -2.25 C 12.238281 -1.53125 14.742188 -1.171875 16.859375 -1.171875 C 21.421875 -1.171875 24.757812 -2.8125 26.875 -6.09375 C 28.988281 -9.375 30.046875 -13.519531 30.046875 -18.53125 L 30.046875 -116.859375 Z M 44.25 -116.859375 "/></g></g></g></g></g></g><g transform="matrix(1, 0, 0, 1, 306, 45)"><g clip-path="url(#08d13abbf1)"><g fill="currentColor" fill-opacity="1"><g transform="translate(0.99305, 154.897794)"><g><path d="M 14.203125 -0.171875 L 14.203125 -116.78125 C 17.429688 -117 21.609375 -117.160156 26.734375 -117.265625 C 31.859375 -117.378906 37.144531 -117.4375 42.59375 -117.4375 C 51.394531 -117.4375 58.410156 -116.238281 63.640625 -113.84375 C 68.878906 -111.457031 72.664062 -108.175781 75 -104 C 77.34375 -99.820312 78.515625 -95.113281 78.515625 -89.875 C 78.515625 -82.96875 76.316406 -76.867188 71.921875 -71.578125 C 67.523438 -66.296875 60.867188 -62.929688 51.953125 -61.484375 L 51.953125 -61.3125 C 62.316406 -60.644531 70.503906 -57.914062 76.515625 -53.125 C 82.523438 -48.332031 85.53125 -41.648438 85.53125 -33.078125 C 85.53125 -21.941406 81.6875 -13.5625 74 -7.9375 C 66.320312 -2.3125 55.1875 0.5 40.59375 0.5 C 38.257812 0.5 35.445312 0.46875 32.15625 0.40625 C 28.875 0.351562 25.644531 0.269531 22.46875 0.15625 C 19.289062 0.0507812 16.535156 -0.0546875 14.203125 -0.171875 Z M 28.40625 -59.3125 L 28.40625 -3 C 30.289062 -2.664062 32.179688 -2.414062 34.078125 -2.25 C 35.972656 -2.082031 38.476562 -2 41.59375 -2 C 47.164062 -2 52.125 -2.972656 56.46875 -4.921875 C 60.8125 -6.878906 64.234375 -9.972656 66.734375 -14.203125 C 69.242188 -18.429688 70.5 -24 70.5 -30.90625 C 70.5 -37.8125 69.101562 -43.351562 66.3125 -47.53125 C 63.53125 -51.707031 59.773438 -54.710938 55.046875 -56.546875 C 50.316406 -58.390625 44.890625 -59.3125 38.765625 -59.3125 Z M 28.40625 -114.609375 L 28.40625 -61.8125 L 38.921875 -61.8125 C 46.390625 -61.8125 52.347656 -63.816406 56.796875 -67.828125 C 61.253906 -71.835938 63.484375 -78.296875 63.484375 -87.203125 C 63.484375 -96.003906 61.144531 -102.828125 56.46875 -107.671875 C 51.789062 -112.515625 45.71875 -114.9375 38.25 -114.9375 C 36.132812 -114.9375 34.328125 -114.9375 32.828125 -114.9375 C 31.328125 -114.9375 29.851562 -114.828125 28.40625 -114.609375 Z M 28.40625 -114.609375 "/></g></g></g></g></g><g fill="currentColor" fill-opacity="1"><g transform="translate(32.05693, 384.193057)"><g><path d="M 19.578125 -51.71875 L 19.578125 -11.59375 C 19.578125 -6.96875 18.691406 -3.753906 16.921875 -1.953125 C 15.148438 -0.160156 12.269531 0.734375 8.28125 0.734375 C 6.257812 0.734375 4.570312 0.390625 3.21875 -0.296875 C 1.863281 -0.984375 0.835938 -1.648438 0.140625 -2.296875 L 0.515625 -2.953125 C 1.648438 -1.972656 2.859375 -1.320312 4.140625 -1 C 5.421875 -0.675781 6.53125 -0.515625 7.46875 -0.515625 C 9.476562 -0.515625 10.953125 -1.238281 11.890625 -2.6875 C 12.828125 -4.144531 13.296875 -5.984375 13.296875 -8.203125 L 13.296875 -51.71875 Z M 19.578125 -51.71875 "/></g></g></g><g fill="currentColor" fill-opacity="1"><g transform="translate(70.8379, 384.193057)"><g><path d="M 35.453125 -3.6875 L 34.71875 0 L 6.28125 0 L 6.28125 -51.71875 L 34.71875 -51.71875 L 33.984375 -48.015625 C 32.753906 -48.460938 31.398438 -48.878906 29.921875 -49.265625 C 28.441406 -49.660156 26.664062 -49.984375 24.59375 -50.234375 C 22.53125 -50.484375 19.945312 -50.609375 16.84375 -50.609375 L 12.5625 -50.609375 L 12.5625 -27.484375 L 18.03125 -27.484375 C 21.71875 -27.484375 24.582031 -27.65625 26.625 -28 C 28.675781 -28.34375 30.144531 -28.613281 31.03125 -28.8125 L 31.03125 -25.125 C 30.144531 -25.363281 28.925781 -25.582031 27.375 -25.78125 C 25.820312 -25.976562 24.207031 -26.125 22.53125 -26.21875 C 20.851562 -26.320312 19.351562 -26.375 18.03125 -26.375 L 12.5625 -26.375 L 12.5625 -1.109375 L 17.578125 -1.109375 C 21.816406 -1.109375 25.390625 -1.351562 28.296875 -1.84375 C 31.203125 -2.332031 33.585938 -2.945312 35.453125 -3.6875 Z M 31.6875 -61.09375 L 16.40625 -55.703125 L 16.109375 -56.359375 L 30.0625 -64.9375 Z M 31.6875 -61.09375 "/></g></g></g><g fill="currentColor" fill-opacity="1"><g transform="translate(122.545113, 384.193057)"><g><path d="M 2.953125 -4.4375 L 3.984375 -8.203125 C 5.859375 -5.691406 8.023438 -3.757812 10.484375 -2.40625 C 12.953125 -1.050781 15.757812 -0.375 18.90625 -0.375 C 20.976562 -0.375 22.875 -0.726562 24.59375 -1.4375 C 26.320312 -2.15625 27.691406 -3.210938 28.703125 -4.609375 C 29.710938 -6.015625 30.21875 -7.726562 30.21875 -9.75 C 30.21875 -12.40625 29.414062 -14.632812 27.8125 -16.4375 C 26.207031 -18.238281 24.25 -19.800781 21.9375 -21.125 L 15.59375 -24.75 C 13.570312 -25.925781 11.6875 -27.203125 9.9375 -28.578125 C 8.1875 -29.960938 6.789062 -31.585938 5.75 -33.453125 C 4.71875 -35.328125 4.203125 -37.570312 4.203125 -40.1875 C 4.203125 -42.007812 4.769531 -43.867188 5.90625 -45.765625 C 7.039062 -47.660156 8.765625 -49.25 11.078125 -50.53125 C 13.390625 -51.8125 16.296875 -52.453125 19.796875 -52.453125 C 22.804688 -52.453125 25.441406 -52.09375 27.703125 -51.375 C 29.960938 -50.664062 32.082031 -49.425781 34.0625 -47.65625 L 32.578125 -44.109375 C 31.046875 -46.617188 29.332031 -48.453125 27.4375 -49.609375 C 25.539062 -50.765625 23.316406 -51.34375 20.765625 -51.34375 C 17.660156 -51.34375 15.160156 -50.578125 13.265625 -49.046875 C 11.367188 -47.523438 10.421875 -45.382812 10.421875 -42.625 C 10.421875 -40.707031 10.800781 -39.070312 11.5625 -37.71875 C 12.320312 -36.363281 13.40625 -35.164062 14.8125 -34.125 C 16.21875 -33.09375 17.832031 -32.007812 19.65625 -30.875 L 24.828125 -27.78125 C 26.890625 -26.550781 28.769531 -25.269531 30.46875 -23.9375 C 32.164062 -22.601562 33.53125 -21.085938 34.5625 -19.390625 C 35.601562 -17.691406 36.125 -15.660156 36.125 -13.296875 C 36.125 -10.296875 35.347656 -7.75 33.796875 -5.65625 C 32.242188 -3.5625 30.160156 -1.972656 27.546875 -0.890625 C 24.941406 0.191406 22.039062 0.734375 18.84375 0.734375 C 15.738281 0.734375 12.832031 0.304688 10.125 -0.546875 C 7.414062 -1.410156 5.023438 -2.707031 2.953125 -4.4375 Z M 2.953125 -4.4375 "/></g></g></g><g fill="currentColor" fill-opacity="1"><g transform="translate(174.547786, 384.193057)"><g><path d="M 2.953125 -4.4375 L 3.984375 -8.203125 C 5.859375 -5.691406 8.023438 -3.757812 10.484375 -2.40625 C 12.953125 -1.050781 15.757812 -0.375 18.90625 -0.375 C 20.976562 -0.375 22.875 -0.726562 24.59375 -1.4375 C 26.320312 -2.15625 27.691406 -3.210938 28.703125 -4.609375 C 29.710938 -6.015625 30.21875 -7.726562 30.21875 -9.75 C 30.21875 -12.40625 29.414062 -14.632812 27.8125 -16.4375 C 26.207031 -18.238281 24.25 -19.800781 21.9375 -21.125 L 15.59375 -24.75 C 13.570312 -25.925781 11.6875 -27.203125 9.9375 -28.578125 C 8.1875 -29.960938 6.789062 -31.585938 5.75 -33.453125 C 4.71875 -35.328125 4.203125 -37.570312 4.203125 -40.1875 C 4.203125 -42.007812 4.769531 -43.867188 5.90625 -45.765625 C 7.039062 -47.660156 8.765625 -49.25 11.078125 -50.53125 C 13.390625 -51.8125 16.296875 -52.453125 19.796875 -52.453125 C 22.804688 -52.453125 25.441406 -52.09375 27.703125 -51.375 C 29.960938 -50.664062 32.082031 -49.425781 34.0625 -47.65625 L 32.578125 -44.109375 C 31.046875 -46.617188 29.332031 -48.453125 27.4375 -49.609375 C 25.539062 -50.765625 23.316406 -51.34375 20.765625 -51.34375 C 17.660156 -51.34375 15.160156 -50.578125 13.265625 -49.046875 C 11.367188 -47.523438 10.421875 -45.382812 10.421875 -42.625 C 10.421875 -40.707031 10.800781 -39.070312 11.5625 -37.71875 C 12.320312 -36.363281 13.40625 -35.164062 14.8125 -34.125 C 16.21875 -33.09375 17.832031 -32.007812 19.65625 -30.875 L 24.828125 -27.78125 C 26.890625 -26.550781 28.769531 -25.269531 30.46875 -23.9375 C 32.164062 -22.601562 33.53125 -21.085938 34.5625 -19.390625 C 35.601562 -17.691406 36.125 -15.660156 36.125 -13.296875 C 36.125 -10.296875 35.347656 -7.75 33.796875 -5.65625 C 32.242188 -3.5625 30.160156 -1.972656 27.546875 -0.890625 C 24.941406 0.191406 22.039062 0.734375 18.84375 0.734375 C 15.738281 0.734375 12.832031 0.304688 10.125 -0.546875 C 7.414062 -1.410156 5.023438 -2.707031 2.953125 -4.4375 Z M 2.953125 -4.4375 "/></g></g></g><g fill="currentColor" fill-opacity="1"><g transform="translate(226.550471, 384.193057)"><g><path d="M 6.65625 0 L 6.65625 -51.71875 L 12.921875 -51.71875 L 12.921875 0 Z M 6.65625 0 "/></g></g></g><g fill="currentColor" fill-opacity="1"><g transform="translate(259.052962, 384.193057)"><g><path d="M 10.34375 -27.265625 C 10.34375 -23.367188 10.921875 -19.769531 12.078125 -16.46875 C 13.234375 -13.175781 14.820312 -10.332031 16.84375 -7.9375 C 18.863281 -5.550781 21.210938 -3.691406 23.890625 -2.359375 C 26.578125 -1.035156 29.425781 -0.375 32.4375 -0.375 C 35.289062 -0.375 38.15625 -0.988281 41.03125 -2.21875 C 43.914062 -3.445312 46.34375 -5.488281 48.3125 -8.34375 L 49.34375 -4.734375 C 46.78125 -2.710938 43.945312 -1.296875 40.84375 -0.484375 C 37.75 0.328125 34.597656 0.734375 31.390625 0.734375 C 26.222656 0.734375 21.546875 -0.296875 17.359375 -2.359375 C 13.171875 -4.429688 9.84375 -7.5 7.375 -11.5625 C 4.914062 -15.625 3.6875 -20.632812 3.6875 -26.59375 C 3.6875 -31.613281 4.734375 -36.066406 6.828125 -39.953125 C 8.921875 -43.847656 12 -46.90625 16.0625 -49.125 C 20.125 -51.34375 25.085938 -52.453125 30.953125 -52.453125 C 34.304688 -52.453125 37.472656 -52.117188 40.453125 -51.453125 C 43.429688 -50.785156 46.050781 -49.59375 48.3125 -47.875 L 47.0625 -44.328125 C 45.476562 -46.296875 43.765625 -47.785156 41.921875 -48.796875 C 40.078125 -49.804688 38.171875 -50.484375 36.203125 -50.828125 C 34.234375 -51.171875 32.257812 -51.34375 30.28125 -51.34375 C 26.101562 -51.34375 22.523438 -50.28125 19.546875 -48.15625 C 16.566406 -46.039062 14.285156 -43.160156 12.703125 -39.515625 C 11.128906 -35.878906 10.34375 -31.796875 10.34375 -27.265625 Z M 10.34375 -27.265625 "/></g></g></g><g fill="currentColor" fill-opacity="1"><g transform="translate(323.169367, 384.193057)"><g><path d="M 51.265625 0 L 44.546875 0 L 36.265625 -18.09375 L 11.234375 -18.09375 C 9.898438 -14.945312 8.675781 -11.820312 7.5625 -8.71875 C 6.457031 -5.613281 5.5625 -2.707031 4.875 0 L 0.734375 0 C 1.578125 -1.675781 2.796875 -4.085938 4.390625 -7.234375 C 5.992188 -10.390625 7.753906 -14.007812 9.671875 -18.09375 L 25.484375 -52.453125 L 27.109375 -52.453125 Z M 15 -26.375 C 14.457031 -25.1875 13.914062 -24 13.375 -22.8125 C 12.832031 -21.632812 12.289062 -20.429688 11.75 -19.203125 L 35.75 -19.203125 L 23.71875 -45.65625 Z M 15 -26.375 "/></g></g></g><g fill="currentColor" fill-opacity="1"><g transform="translate(388.467638, 384.193057)"><g/></g></g><g fill="currentColor" fill-opacity="1"><g transform="translate(418.015544, 384.193057)"><g><path d="M 6.28125 -0.078125 L 6.28125 -51.640625 C 7.707031 -51.734375 9.550781 -51.804688 11.8125 -51.859375 C 14.082031 -51.910156 16.425781 -51.9375 18.84375 -51.9375 C 22.726562 -51.9375 25.828125 -51.40625 28.140625 -50.34375 C 30.460938 -49.28125 32.140625 -47.828125 33.171875 -45.984375 C 34.203125 -44.140625 34.71875 -42.0625 34.71875 -39.75 C 34.71875 -36.695312 33.742188 -34 31.796875 -31.65625 C 29.859375 -29.3125 26.914062 -27.820312 22.96875 -27.1875 L 22.96875 -27.109375 C 27.550781 -26.816406 31.171875 -25.609375 33.828125 -23.484375 C 36.492188 -21.367188 37.828125 -18.414062 37.828125 -14.625 C 37.828125 -9.695312 36.125 -5.988281 32.71875 -3.5 C 29.320312 -1.019531 24.398438 0.21875 17.953125 0.21875 C 16.921875 0.21875 15.675781 0.203125 14.21875 0.171875 C 12.769531 0.148438 11.34375 0.113281 9.9375 0.0625 C 8.53125 0.0195312 7.3125 -0.0234375 6.28125 -0.078125 Z M 12.5625 -26.21875 L 12.5625 -1.328125 C 13.394531 -1.179688 14.226562 -1.070312 15.0625 -1 C 15.90625 -0.925781 17.015625 -0.890625 18.390625 -0.890625 C 20.859375 -0.890625 23.050781 -1.316406 24.96875 -2.171875 C 26.882812 -3.035156 28.394531 -4.40625 29.5 -6.28125 C 30.613281 -8.15625 31.171875 -10.617188 31.171875 -13.671875 C 31.171875 -16.722656 30.554688 -19.171875 29.328125 -21.015625 C 28.097656 -22.859375 26.4375 -24.1875 24.34375 -25 C 22.25 -25.8125 19.847656 -26.21875 17.140625 -26.21875 Z M 12.5625 -50.671875 L 12.5625 -27.328125 L 17.21875 -27.328125 C 20.507812 -27.328125 23.140625 -28.210938 25.109375 -29.984375 C 27.085938 -31.765625 28.078125 -34.625 28.078125 -38.5625 C 28.078125 -42.457031 27.039062 -45.472656 24.96875 -47.609375 C 22.894531 -49.753906 20.210938 -50.828125 16.921875 -50.828125 C 15.984375 -50.828125 15.179688 -50.828125 14.515625 -50.828125 C 13.847656 -50.828125 13.195312 -50.773438 12.5625 -50.671875 Z M 12.5625 -50.671875 "/></g></g></g><g fill="currentColor" fill-opacity="1"><g transform="translate(472.086443, 384.193057)"><g><path d="M 6.65625 0 L 6.65625 -51.71875 L 12.921875 -51.71875 L 12.921875 0 Z M 6.65625 0 "/></g></g></g><g fill="currentColor" fill-opacity="1"><g transform="translate(504.588911, 384.193057)"><g><path d="M 12.5625 0 L 6.28125 0 L 6.28125 -51.71875 C 7.019531 -51.71875 8.03125 -51.726562 9.3125 -51.75 C 10.59375 -51.769531 11.945312 -51.789062 13.375 -51.8125 C 14.800781 -51.84375 16.078125 -51.859375 17.203125 -51.859375 C 18.335938 -51.859375 19.078125 -51.859375 19.421875 -51.859375 C 24.148438 -51.859375 27.84375 -51.15625 30.5 -49.75 C 33.164062 -48.351562 35.050781 -46.519531 36.15625 -44.25 C 37.269531 -41.988281 37.828125 -39.597656 37.828125 -37.078125 C 37.828125 -34.421875 37.257812 -32.179688 36.125 -30.359375 C 34.988281 -28.535156 33.609375 -27.109375 31.984375 -26.078125 C 30.359375 -25.046875 28.757812 -24.332031 27.1875 -23.9375 L 44.546875 0 L 37.015625 0 L 20.609375 -23.046875 L 12.5625 -23.046875 Z M 12.5625 -50.453125 L 12.5625 -24.15625 L 17.0625 -24.15625 C 21.300781 -24.15625 24.710938 -25.210938 27.296875 -27.328125 C 29.878906 -29.453125 31.171875 -32.628906 31.171875 -36.859375 C 31.171875 -41.097656 29.914062 -44.472656 27.40625 -46.984375 C 24.894531 -49.492188 21.445312 -50.75 17.0625 -50.75 C 15.976562 -50.75 15.203125 -50.722656 14.734375 -50.671875 C 14.265625 -50.628906 13.539062 -50.554688 12.5625 -50.453125 Z M 12.5625 -50.453125 "/></g></g></g><g fill="currentColor" fill-opacity="1"><g transform="translate(562.426872, 384.193057)"><g><path d="M 10.34375 -27.265625 C 10.34375 -23.367188 10.921875 -19.769531 12.078125 -16.46875 C 13.234375 -13.175781 14.820312 -10.332031 16.84375 -7.9375 C 18.863281 -5.550781 21.210938 -3.691406 23.890625 -2.359375 C 26.578125 -1.035156 29.425781 -0.375 32.4375 -0.375 C 35.289062 -0.375 38.15625 -0.988281 41.03125 -2.21875 C 43.914062 -3.445312 46.34375 -5.488281 48.3125 -8.34375 L 49.34375 -4.734375 C 46.78125 -2.710938 43.945312 -1.296875 40.84375 -0.484375 C 37.75 0.328125 34.597656 0.734375 31.390625 0.734375 C 26.222656 0.734375 21.546875 -0.296875 17.359375 -2.359375 C 13.171875 -4.429688 9.84375 -7.5 7.375 -11.5625 C 4.914062 -15.625 3.6875 -20.632812 3.6875 -26.59375 C 3.6875 -31.613281 4.734375 -36.066406 6.828125 -39.953125 C 8.921875 -43.847656 12 -46.90625 16.0625 -49.125 C 20.125 -51.34375 25.085938 -52.453125 30.953125 -52.453125 C 34.304688 -52.453125 37.472656 -52.117188 40.453125 -51.453125 C 43.429688 -50.785156 46.050781 -49.59375 48.3125 -47.875 L 47.0625 -44.328125 C 45.476562 -46.296875 43.765625 -47.785156 41.921875 -48.796875 C 40.078125 -49.804688 38.171875 -50.484375 36.203125 -50.828125 C 34.234375 -51.171875 32.257812 -51.34375 30.28125 -51.34375 C 26.101562 -51.34375 22.523438 -50.28125 19.546875 -48.15625 C 16.566406 -46.039062 14.285156 -43.160156 12.703125 -39.515625 C 11.128906 -35.878906 10.34375 -31.796875 10.34375 -27.265625 Z M 10.34375 -27.265625 "/></g></g></g><g fill="currentColor" fill-opacity="1"><g transform="translate(626.5433, 384.193057)"><g><path d="M 38.1875 -51.71875 L 43.359375 -51.71875 C 43.359375 -51.71875 42.84375 -51.285156 41.8125 -50.421875 C 40.78125 -49.554688 39.414062 -48.382812 37.71875 -46.90625 C 36.019531 -45.425781 34.179688 -43.773438 32.203125 -41.953125 C 30.234375 -40.140625 28.316406 -38.296875 26.453125 -36.421875 L 19.421875 -29.328125 L 45.28125 0 L 37.234375 0 L 14.546875 -26.078125 L 24.59375 -35.984375 C 27.351562 -38.734375 29.925781 -41.507812 32.3125 -44.3125 C 34.707031 -47.125 36.664062 -49.59375 38.1875 -51.71875 Z M 6.28125 0 L 6.28125 -51.71875 L 12.5625 -51.71875 L 12.5625 0 Z M 6.28125 0 "/></g></g></g><g transform="matrix(1, 0, 0, 1, 50, 420)"><g clip-path="url(#b175756287)"><g fill="currentColor" fill-opacity="1"><g transform="translate(1.76301, 32.052379)"><g><path d="M 23.8125 0 L 20.6875 0 L 16.84375 -8.40625 L 5.21875 -8.40625 C 4.59375 -6.9375 4.023438 -5.484375 3.515625 -4.046875 C 3.003906 -2.609375 2.585938 -1.257812 2.265625 0 L 0.34375 0 C 0.726562 -0.78125 1.289062 -1.898438 2.03125 -3.359375 C 2.78125 -4.828125 3.601562 -6.507812 4.5 -8.40625 L 11.84375 -24.359375 L 12.59375 -24.359375 Z M 6.96875 -12.25 C 6.71875 -11.695312 6.460938 -11.144531 6.203125 -10.59375 C 5.953125 -10.050781 5.703125 -9.492188 5.453125 -8.921875 L 16.609375 -8.921875 L 11.015625 -21.203125 Z M 6.96875 -12.25 "/></g></g></g><g fill="currentColor" fill-opacity="1"><g transform="translate(31.166289, 32.052379)"><g><path d="M 2.921875 0 L 2.921875 -24.015625 L 3.328125 -24.015625 C 3.859375 -24.015625 4.535156 -24.019531 5.359375 -24.03125 C 6.179688 -24.039062 7.023438 -24.054688 7.890625 -24.078125 C 8.765625 -24.109375 9.519531 -24.125 10.15625 -24.125 C 12.5625 -24.125 14.613281 -23.804688 16.3125 -23.171875 C 18.019531 -22.546875 19.414062 -21.679688 20.5 -20.578125 C 21.582031 -19.484375 22.375 -18.226562 22.875 -16.8125 C 23.382812 -15.394531 23.640625 -13.894531 23.640625 -12.3125 C 23.640625 -10.050781 23.128906 -7.984375 22.109375 -6.109375 C 21.097656 -4.234375 19.570312 -2.734375 17.53125 -1.609375 C 15.5 -0.492188 12.945312 0.0625 9.875 0.0625 C 9.351562 0.0625 8.703125 0.0546875 7.921875 0.046875 C 7.148438 0.0351562 6.359375 0.0234375 5.546875 0.015625 C 4.734375 0.00390625 3.984375 0 3.296875 0 Z M 5.828125 -23.4375 L 5.828125 -0.6875 C 6.566406 -0.59375 7.367188 -0.539062 8.234375 -0.53125 C 9.097656 -0.519531 9.804688 -0.515625 10.359375 -0.515625 C 13.859375 -0.515625 16.421875 -1.507812 18.046875 -3.5 C 19.671875 -5.488281 20.492188 -8.3125 20.515625 -11.96875 C 20.535156 -14.28125 20.125 -16.3125 19.28125 -18.0625 C 18.4375 -19.8125 17.207031 -21.171875 15.59375 -22.140625 C 13.976562 -23.117188 12.003906 -23.609375 9.671875 -23.609375 C 8.960938 -23.609375 8.28125 -23.59375 7.625 -23.5625 C 6.976562 -23.539062 6.378906 -23.5 5.828125 -23.4375 Z M 5.828125 -23.4375 "/></g></g></g><g fill="currentColor" fill-opacity="1"><g transform="translate(61.598851, 32.052379)"><g><path d="M 20.109375 -24.015625 L 22.03125 -24.015625 C 22.03125 -24.015625 21.894531 -23.734375 21.625 -23.171875 C 21.363281 -22.617188 21.023438 -21.898438 20.609375 -21.015625 C 20.203125 -20.140625 19.769531 -19.1875 19.3125 -18.15625 C 18.851562 -17.125 18.414062 -16.125 18 -15.15625 C 17.59375 -14.195312 17.265625 -13.378906 17.015625 -12.703125 L 11.53125 0.171875 L 10.78125 0.171875 L 0.34375 -24.015625 L 3.46875 -24.015625 L 12.453125 -3.53125 L 16.265625 -12.53125 C 17.066406 -14.40625 17.726562 -16.125 18.25 -17.6875 C 18.78125 -19.25 19.195312 -20.578125 19.5 -21.671875 C 19.8125 -22.773438 20.015625 -23.554688 20.109375 -24.015625 Z M 20.109375 -24.015625 "/></g></g></g><g fill="currentColor" fill-opacity="1"><g transform="translate(88.874937, 32.052379)"><g><path d="M 1.71875 -12.015625 C 1.71875 -13.742188 2.019531 -15.359375 2.625 -16.859375 C 3.226562 -18.359375 4.085938 -19.664062 5.203125 -20.78125 C 6.328125 -21.90625 7.65625 -22.78125 9.1875 -23.40625 C 10.726562 -24.039062 12.4375 -24.359375 14.3125 -24.359375 C 16.757812 -24.359375 18.925781 -23.835938 20.8125 -22.796875 C 22.695312 -21.753906 24.179688 -20.296875 25.265625 -18.421875 C 26.359375 -16.546875 26.90625 -14.375 26.90625 -11.90625 C 26.90625 -10.144531 26.578125 -8.519531 25.921875 -7.03125 C 25.265625 -5.539062 24.359375 -4.238281 23.203125 -3.125 C 22.054688 -2.019531 20.722656 -1.164062 19.203125 -0.5625 C 17.679688 0.0390625 16.050781 0.34375 14.3125 0.34375 C 11.882812 0.34375 9.71875 -0.175781 7.8125 -1.21875 C 5.914062 -2.257812 4.425781 -3.710938 3.34375 -5.578125 C 2.257812 -7.441406 1.71875 -9.585938 1.71875 -12.015625 Z M 4.796875 -11.90625 C 4.796875 -10.375 5.035156 -8.90625 5.515625 -7.5 C 6.003906 -6.09375 6.6875 -4.835938 7.5625 -3.734375 C 8.445312 -2.640625 9.492188 -1.769531 10.703125 -1.125 C 11.921875 -0.488281 13.257812 -0.171875 14.71875 -0.171875 C 16.269531 -0.171875 17.613281 -0.488281 18.75 -1.125 C 19.882812 -1.769531 20.828125 -2.644531 21.578125 -3.75 C 22.335938 -4.863281 22.898438 -6.128906 23.265625 -7.546875 C 23.628906 -8.960938 23.8125 -10.453125 23.8125 -12.015625 C 23.8125 -14.296875 23.390625 -16.320312 22.546875 -18.09375 C 21.703125 -19.875 20.53125 -21.273438 19.03125 -22.296875 C 17.53125 -23.328125 15.804688 -23.84375 13.859375 -23.84375 C 11.890625 -23.84375 10.226562 -23.304688 8.875 -22.234375 C 7.53125 -21.160156 6.515625 -19.722656 5.828125 -17.921875 C 5.140625 -16.128906 4.796875 -14.125 4.796875 -11.90625 Z M 4.796875 -11.90625 "/></g></g></g><g fill="currentColor" fill-opacity="1"><g transform="translate(122.566934, 32.052379)"><g><path d="M 14.75 -10.328125 L 14.75 -10.84375 L 23.984375 -10.84375 L 23.984375 -2.984375 C 22.515625 -1.773438 20.976562 -0.914062 19.375 -0.40625 C 17.78125 0.09375 16.238281 0.34375 14.75 0.34375 C 12.257812 0.34375 10.03125 -0.132812 8.0625 -1.09375 C 6.09375 -2.0625 4.539062 -3.472656 3.40625 -5.328125 C 2.28125 -7.191406 1.71875 -9.5 1.71875 -12.25 C 1.71875 -14.46875 2.207031 -16.488281 3.1875 -18.3125 C 4.175781 -20.144531 5.613281 -21.609375 7.5 -22.703125 C 9.382812 -23.804688 11.675781 -24.359375 14.375 -24.359375 C 16 -24.359375 17.46875 -24.195312 18.78125 -23.875 C 20.101562 -23.5625 21.289062 -23.003906 22.34375 -22.203125 L 21.75 -20.546875 C 20.882812 -21.765625 19.789062 -22.617188 18.46875 -23.109375 C 17.15625 -23.597656 15.757812 -23.84375 14.28125 -23.84375 C 12.195312 -23.84375 10.453125 -23.335938 9.046875 -22.328125 C 7.640625 -21.328125 6.578125 -19.929688 5.859375 -18.140625 C 5.148438 -16.359375 4.796875 -14.316406 4.796875 -12.015625 C 4.796875 -9.609375 5.265625 -7.519531 6.203125 -5.75 C 7.148438 -3.976562 8.410156 -2.601562 9.984375 -1.625 C 11.566406 -0.65625 13.316406 -0.171875 15.234375 -0.171875 C 16.171875 -0.171875 17.164062 -0.335938 18.21875 -0.671875 C 19.269531 -1.003906 20.273438 -1.554688 21.234375 -2.328125 L 21.234375 -10.328125 Z M 14.75 -10.328125 "/></g></g></g><g fill="currentColor" fill-opacity="1"><g transform="translate(152.999496, 32.052379)"><g><path d="M 23.8125 0 L 20.6875 0 L 16.84375 -8.40625 L 5.21875 -8.40625 C 4.59375 -6.9375 4.023438 -5.484375 3.515625 -4.046875 C 3.003906 -2.609375 2.585938 -1.257812 2.265625 0 L 0.34375 0 C 0.726562 -0.78125 1.289062 -1.898438 2.03125 -3.359375 C 2.78125 -4.828125 3.601562 -6.507812 4.5 -8.40625 L 11.84375 -24.359375 L 12.59375 -24.359375 Z M 6.96875 -12.25 C 6.71875 -11.695312 6.460938 -11.144531 6.203125 -10.59375 C 5.953125 -10.050781 5.703125 -9.492188 5.453125 -8.921875 L 16.609375 -8.921875 L 11.015625 -21.203125 Z M 6.96875 -12.25 "/></g></g></g><g fill="currentColor" fill-opacity="1"><g transform="translate(182.402774, 32.052379)"><g><path d="M 2.921875 0 L 2.921875 -24.015625 L 3.328125 -24.015625 C 3.859375 -24.015625 4.535156 -24.019531 5.359375 -24.03125 C 6.179688 -24.039062 7.023438 -24.054688 7.890625 -24.078125 C 8.765625 -24.109375 9.519531 -24.125 10.15625 -24.125 C 12.5625 -24.125 14.613281 -23.804688 16.3125 -23.171875 C 18.019531 -22.546875 19.414062 -21.679688 20.5 -20.578125 C 21.582031 -19.484375 22.375 -18.226562 22.875 -16.8125 C 23.382812 -15.394531 23.640625 -13.894531 23.640625 -12.3125 C 23.640625 -10.050781 23.128906 -7.984375 22.109375 -6.109375 C 21.097656 -4.234375 19.570312 -2.734375 17.53125 -1.609375 C 15.5 -0.492188 12.945312 0.0625 9.875 0.0625 C 9.351562 0.0625 8.703125 0.0546875 7.921875 0.046875 C 7.148438 0.0351562 6.359375 0.0234375 5.546875 0.015625 C 4.734375 0.00390625 3.984375 0 3.296875 0 Z M 5.828125 -23.4375 L 5.828125 -0.6875 C 6.566406 -0.59375 7.367188 -0.539062 8.234375 -0.53125 C 9.097656 -0.519531 9.804688 -0.515625 10.359375 -0.515625 C 13.859375 -0.515625 16.421875 -1.507812 18.046875 -3.5 C 19.671875 -5.488281 20.492188 -8.3125 20.515625 -11.96875 C 20.535156 -14.28125 20.125 -16.3125 19.28125 -18.0625 C 18.4375 -19.8125 17.207031 -21.171875 15.59375 -22.140625 C 13.976562 -23.117188 12.003906 -23.609375 9.671875 -23.609375 C 8.960938 -23.609375 8.28125 -23.59375 7.625 -23.5625 C 6.976562 -23.539062 6.378906 -23.5 5.828125 -23.4375 Z M 5.828125 -23.4375 "/></g></g></g><g fill="currentColor" fill-opacity="1"><g transform="translate(212.835336, 32.052379)"><g><path d="M 23.8125 0 L 20.6875 0 L 16.84375 -8.40625 L 5.21875 -8.40625 C 4.59375 -6.9375 4.023438 -5.484375 3.515625 -4.046875 C 3.003906 -2.609375 2.585938 -1.257812 2.265625 0 L 0.34375 0 C 0.726562 -0.78125 1.289062 -1.898438 2.03125 -3.359375 C 2.78125 -4.828125 3.601562 -6.507812 4.5 -8.40625 L 11.84375 -24.359375 L 12.59375 -24.359375 Z M 6.96875 -12.25 C 6.71875 -11.695312 6.460938 -11.144531 6.203125 -10.59375 C 5.953125 -10.050781 5.703125 -9.492188 5.453125 -8.921875 L 16.609375 -8.921875 L 11.015625 -21.203125 Z M 6.96875 -12.25 "/></g></g></g><g fill="currentColor" fill-opacity="1"><g transform="translate(242.238615, 32.052379)"><g/></g></g><g fill="currentColor" fill-opacity="1"><g transform="translate(255.036015, 32.052379)"><g><path d="M 3.4375 0 L 3.4375 -24.015625 L 3.90625 -24.015625 L 3.90625 0 Z M 3.4375 0 "/></g></g></g><g fill="currentColor" fill-opacity="1"><g transform="translate(267.456046, 32.052379)"><g/></g></g><g fill="currentColor" fill-opacity="1"><g transform="translate(280.258856, 32.052379)"><g><path d="M 1.71875 -12.015625 C 1.71875 -13.742188 2.019531 -15.359375 2.625 -16.859375 C 3.226562 -18.359375 4.085938 -19.664062 5.203125 -20.78125 C 6.328125 -21.90625 7.65625 -22.78125 9.1875 -23.40625 C 10.726562 -24.039062 12.4375 -24.359375 14.3125 -24.359375 C 16.757812 -24.359375 18.925781 -23.835938 20.8125 -22.796875 C 22.695312 -21.753906 24.179688 -20.296875 25.265625 -18.421875 C 26.359375 -16.546875 26.90625 -14.375 26.90625 -11.90625 C 26.90625 -10.144531 26.578125 -8.519531 25.921875 -7.03125 C 25.265625 -5.539062 24.359375 -4.238281 23.203125 -3.125 C 22.054688 -2.019531 20.722656 -1.164062 19.203125 -0.5625 C 17.679688 0.0390625 16.050781 0.34375 14.3125 0.34375 C 11.882812 0.34375 9.71875 -0.175781 7.8125 -1.21875 C 5.914062 -2.257812 4.425781 -3.710938 3.34375 -5.578125 C 2.257812 -7.441406 1.71875 -9.585938 1.71875 -12.015625 Z M 4.796875 -11.90625 C 4.796875 -10.375 5.035156 -8.90625 5.515625 -7.5 C 6.003906 -6.09375 6.6875 -4.835938 7.5625 -3.734375 C 8.445312 -2.640625 9.492188 -1.769531 10.703125 -1.125 C 11.921875 -0.488281 13.257812 -0.171875 14.71875 -0.171875 C 16.269531 -0.171875 17.613281 -0.488281 18.75 -1.125 C 19.882812 -1.769531 20.828125 -2.644531 21.578125 -3.75 C 22.335938 -4.863281 22.898438 -6.128906 23.265625 -7.546875 C 23.628906 -8.960938 23.8125 -10.453125 23.8125 -12.015625 C 23.8125 -14.296875 23.390625 -16.320312 22.546875 -18.09375 C 21.703125 -19.875 20.53125 -21.273438 19.03125 -22.296875 C 17.53125 -23.328125 15.804688 -23.84375 13.859375 -23.84375 C 11.890625 -23.84375 10.226562 -23.304688 8.875 -22.234375 C 7.53125 -21.160156 6.515625 -19.722656 5.828125 -17.921875 C 5.140625 -16.128906 4.796875 -14.125 4.796875 -11.90625 Z M 4.796875 -11.90625 "/></g></g></g><g fill="currentColor" fill-opacity="1"><g transform="translate(313.950853, 32.052379)"><g><path d="M 23.8125 0 L 20.6875 0 L 16.84375 -8.40625 L 5.21875 -8.40625 C 4.59375 -6.9375 4.023438 -5.484375 3.515625 -4.046875 C 3.003906 -2.609375 2.585938 -1.257812 2.265625 0 L 0.34375 0 C 0.726562 -0.78125 1.289062 -1.898438 2.03125 -3.359375 C 2.78125 -4.828125 3.601562 -6.507812 4.5 -8.40625 L 11.84375 -24.359375 L 12.59375 -24.359375 Z M 6.96875 -12.25 C 6.71875 -11.695312 6.460938 -11.144531 6.203125 -10.59375 C 5.953125 -10.050781 5.703125 -9.492188 5.453125 -8.921875 L 16.609375 -8.921875 L 11.015625 -21.203125 Z M 6.96875 -12.25 "/></g></g></g><g fill="currentColor" fill-opacity="1"><g transform="translate(343.354131, 32.052379)"><g><path d="M 2.921875 -0.03125 L 2.921875 -23.984375 C 3.578125 -24.023438 4.429688 -24.054688 5.484375 -24.078125 C 6.535156 -24.109375 7.625 -24.125 8.75 -24.125 C 10.550781 -24.125 11.988281 -23.875 13.0625 -23.375 C 14.144531 -22.882812 14.925781 -22.210938 15.40625 -21.359375 C 15.882812 -20.503906 16.125 -19.535156 16.125 -18.453125 C 16.125 -17.035156 15.671875 -15.785156 14.765625 -14.703125 C 13.867188 -13.617188 12.503906 -12.925781 10.671875 -12.625 L 10.671875 -12.59375 C 12.796875 -12.457031 14.472656 -11.894531 15.703125 -10.90625 C 16.941406 -9.925781 17.5625 -8.554688 17.5625 -6.796875 C 17.5625 -4.503906 16.769531 -2.78125 15.1875 -1.625 C 13.613281 -0.46875 11.332031 0.109375 8.34375 0.109375 C 7.863281 0.109375 7.285156 0.0976562 6.609375 0.078125 C 5.929688 0.0664062 5.265625 0.0507812 4.609375 0.03125 C 3.960938 0.0078125 3.398438 -0.0078125 2.921875 -0.03125 Z M 5.828125 -12.1875 L 5.828125 -0.625 C 6.222656 -0.550781 6.613281 -0.492188 7 -0.453125 C 7.382812 -0.421875 7.898438 -0.40625 8.546875 -0.40625 C 9.691406 -0.40625 10.707031 -0.601562 11.59375 -1 C 12.488281 -1.40625 13.191406 -2.039062 13.703125 -2.90625 C 14.222656 -3.78125 14.484375 -4.925781 14.484375 -6.34375 C 14.484375 -7.757812 14.195312 -8.894531 13.625 -9.75 C 13.050781 -10.613281 12.273438 -11.234375 11.296875 -11.609375 C 10.328125 -11.992188 9.210938 -12.1875 7.953125 -12.1875 Z M 5.828125 -23.53125 L 5.828125 -12.703125 L 8 -12.703125 C 9.53125 -12.703125 10.75 -13.113281 11.65625 -13.9375 C 12.570312 -14.757812 13.03125 -16.082031 13.03125 -17.90625 C 13.03125 -19.71875 12.550781 -21.117188 11.59375 -22.109375 C 10.632812 -23.109375 9.390625 -23.609375 7.859375 -23.609375 C 7.421875 -23.609375 7.046875 -23.609375 6.734375 -23.609375 C 6.429688 -23.609375 6.128906 -23.582031 5.828125 -23.53125 Z M 5.828125 -23.53125 "/></g></g></g><g fill="currentColor" fill-opacity="1"><g transform="translate(367.542365, 32.052379)"><g><path d="M -0.203125 6.65625 L 11.21875 -24.046875 L 11.703125 -23.875 L 0.28125 6.828125 Z M -0.203125 6.65625 "/></g></g></g><g fill="currentColor" fill-opacity="1"><g transform="translate(384.113865, 32.052379)"><g><path d="M 5.828125 0 L 2.921875 0 L 2.921875 -24.015625 C 3.265625 -24.015625 3.734375 -24.019531 4.328125 -24.03125 C 4.921875 -24.039062 5.546875 -24.050781 6.203125 -24.0625 C 6.867188 -24.082031 7.460938 -24.09375 7.984375 -24.09375 C 8.515625 -24.09375 8.863281 -24.09375 9.03125 -24.09375 C 11.21875 -24.09375 12.929688 -23.765625 14.171875 -23.109375 C 15.410156 -22.453125 16.285156 -21.597656 16.796875 -20.546875 C 17.304688 -19.492188 17.5625 -18.382812 17.5625 -17.21875 C 17.5625 -15.988281 17.296875 -14.945312 16.765625 -14.09375 C 16.242188 -13.25 15.601562 -12.585938 14.84375 -12.109375 C 14.09375 -11.628906 13.351562 -11.300781 12.625 -11.125 L 20.6875 0 L 17.1875 0 L 9.578125 -10.703125 L 5.828125 -10.703125 Z M 5.828125 -23.4375 L 5.828125 -11.21875 L 7.921875 -11.21875 C 9.890625 -11.21875 11.472656 -11.707031 12.671875 -12.6875 C 13.878906 -13.675781 14.484375 -15.15625 14.484375 -17.125 C 14.484375 -19.09375 13.898438 -20.660156 12.734375 -21.828125 C 11.566406 -22.992188 9.960938 -23.578125 7.921875 -23.578125 C 7.421875 -23.578125 7.0625 -23.5625 6.84375 -23.53125 C 6.625 -23.507812 6.285156 -23.476562 5.828125 -23.4375 Z M 5.828125 -23.4375 "/></g></g></g><g fill="currentColor" fill-opacity="1"><g transform="translate(410.051877, 32.052379)"><g><path d="M 1.375 -2.0625 L 1.859375 -3.8125 C 2.722656 -2.644531 3.726562 -1.742188 4.875 -1.109375 C 6.019531 -0.484375 7.320312 -0.171875 8.78125 -0.171875 C 9.738281 -0.171875 10.617188 -0.335938 11.421875 -0.671875 C 12.222656 -1.003906 12.859375 -1.492188 13.328125 -2.140625 C 13.796875 -2.796875 14.03125 -3.59375 14.03125 -4.53125 C 14.03125 -5.757812 13.65625 -6.789062 12.90625 -7.625 C 12.164062 -8.46875 11.257812 -9.195312 10.1875 -9.8125 L 7.234375 -11.5 C 6.296875 -12.039062 5.421875 -12.628906 4.609375 -13.265625 C 3.796875 -13.910156 3.148438 -14.664062 2.671875 -15.53125 C 2.191406 -16.40625 1.953125 -17.453125 1.953125 -18.671875 C 1.953125 -19.515625 2.210938 -20.375 2.734375 -21.25 C 3.265625 -22.132812 4.066406 -22.875 5.140625 -23.46875 C 6.222656 -24.0625 7.578125 -24.359375 9.203125 -24.359375 C 10.585938 -24.359375 11.804688 -24.191406 12.859375 -23.859375 C 13.921875 -23.523438 14.90625 -22.945312 15.8125 -22.125 L 15.125 -20.484375 C 14.414062 -21.648438 13.617188 -22.5 12.734375 -23.03125 C 11.859375 -23.570312 10.828125 -23.84375 9.640625 -23.84375 C 8.203125 -23.84375 7.039062 -23.488281 6.15625 -22.78125 C 5.28125 -22.070312 4.84375 -21.078125 4.84375 -19.796875 C 4.84375 -18.898438 5.019531 -18.140625 5.375 -17.515625 C 5.726562 -16.890625 6.226562 -16.332031 6.875 -15.84375 C 7.53125 -15.363281 8.28125 -14.863281 9.125 -14.34375 L 11.53125 -12.90625 C 12.488281 -12.332031 13.363281 -11.734375 14.15625 -11.109375 C 14.945312 -10.492188 15.582031 -9.789062 16.0625 -9 C 16.539062 -8.21875 16.78125 -7.273438 16.78125 -6.171875 C 16.78125 -4.773438 16.414062 -3.59375 15.6875 -2.625 C 14.96875 -1.65625 14.003906 -0.914062 12.796875 -0.40625 C 11.585938 0.09375 10.238281 0.34375 8.75 0.34375 C 7.3125 0.34375 5.960938 0.144531 4.703125 -0.25 C 3.441406 -0.65625 2.332031 -1.257812 1.375 -2.0625 Z M 1.375 -2.0625 "/></g></g></g><g fill="currentColor" fill-opacity="1"><g transform="translate(433.279409, 32.052379)"><g/></g></g><g fill="currentColor" fill-opacity="1"><g transform="translate(446.07681, 32.052379)"><g><path d="M 8.125 -24.5 L 8.890625 -24.5 L 8.890625 0 L 6.140625 0 L 6.140625 -21.4375 C 6.023438 -21.300781 5.800781 -21.085938 5.46875 -20.796875 C 5.132812 -20.515625 4.757812 -20.195312 4.34375 -19.84375 C 3.9375 -19.488281 3.535156 -19.148438 3.140625 -18.828125 C 2.742188 -18.515625 2.414062 -18.253906 2.15625 -18.046875 L 1.921875 -18.421875 C 2.304688 -18.722656 2.804688 -19.160156 3.421875 -19.734375 C 4.046875 -20.304688 4.6875 -20.910156 5.34375 -21.546875 C 6.007812 -22.191406 6.597656 -22.785156 7.109375 -23.328125 C 7.628906 -23.878906 7.96875 -24.269531 8.125 -24.5 Z M 8.125 -24.5 "/></g></g></g><g fill="currentColor" fill-opacity="1"><g transform="translate(464.157923, 32.052379)"><g><path d="M 8.921875 0.34375 C 7.367188 0.34375 6.070312 0.078125 5.03125 -0.453125 C 3.988281 -0.992188 3.160156 -1.6875 2.546875 -2.53125 C 1.941406 -3.382812 1.492188 -4.28125 1.203125 -5.21875 L 1.515625 -5.359375 C 2.054688 -3.890625 2.921875 -2.820312 4.109375 -2.15625 C 5.304688 -1.5 6.632812 -1.171875 8.09375 -1.171875 C 8.96875 -1.171875 9.8125 -1.363281 10.625 -1.75 C 11.4375 -2.132812 12.109375 -2.726562 12.640625 -3.53125 C 13.179688 -4.332031 13.453125 -5.351562 13.453125 -6.59375 C 13.453125 -7.613281 13.222656 -8.539062 12.765625 -9.375 C 12.304688 -10.21875 11.675781 -10.878906 10.875 -11.359375 C 10.070312 -11.835938 9.144531 -12.078125 8.09375 -12.078125 L 5.96875 -12.078125 L 5.96875 -12.5625 L 7.578125 -12.5625 C 8.398438 -12.5625 9.171875 -12.75 9.890625 -13.125 C 10.617188 -13.5 11.210938 -14.082031 11.671875 -14.875 C 12.128906 -15.664062 12.359375 -16.675781 12.359375 -17.90625 C 12.359375 -19.46875 11.859375 -20.660156 10.859375 -21.484375 C 9.867188 -22.304688 8.675781 -22.71875 7.28125 -22.71875 C 6.113281 -22.71875 5.050781 -22.375 4.09375 -21.6875 C 3.144531 -21 2.488281 -20.015625 2.125 -18.734375 L 1.78125 -18.84375 C 2.007812 -19.78125 2.421875 -20.664062 3.015625 -21.5 C 3.609375 -22.332031 4.394531 -23.015625 5.375 -23.546875 C 6.363281 -24.085938 7.546875 -24.359375 8.921875 -24.359375 C 10.109375 -24.359375 11.164062 -24.117188 12.09375 -23.640625 C 13.019531 -23.160156 13.75 -22.503906 14.28125 -21.671875 C 14.820312 -20.835938 15.09375 -19.859375 15.09375 -18.734375 C 15.09375 -17.203125 14.617188 -15.890625 13.671875 -14.796875 C 12.722656 -13.710938 11.378906 -12.96875 9.640625 -12.5625 L 9.640625 -12.53125 C 11.703125 -12.4375 13.335938 -11.820312 14.546875 -10.6875 C 15.753906 -9.550781 16.359375 -8.09375 16.359375 -6.3125 C 16.359375 -4.988281 16.050781 -3.828125 15.4375 -2.828125 C 14.820312 -1.835938 13.953125 -1.0625 12.828125 -0.5 C 11.710938 0.0625 10.410156 0.34375 8.921875 0.34375 Z M 8.921875 0.34375 "/></g></g></g><g fill="currentColor" fill-opacity="1"><g transform="translate(487.488414, 32.052379)"><g><path d="M 8.921875 0.34375 C 7.367188 0.34375 6.070312 0.078125 5.03125 -0.453125 C 3.988281 -0.992188 3.160156 -1.6875 2.546875 -2.53125 C 1.941406 -3.382812 1.492188 -4.28125 1.203125 -5.21875 L 1.515625 -5.359375 C 2.054688 -3.890625 2.921875 -2.820312 4.109375 -2.15625 C 5.304688 -1.5 6.632812 -1.171875 8.09375 -1.171875 C 8.96875 -1.171875 9.8125 -1.363281 10.625 -1.75 C 11.4375 -2.132812 12.109375 -2.726562 12.640625 -3.53125 C 13.179688 -4.332031 13.453125 -5.351562 13.453125 -6.59375 C 13.453125 -7.613281 13.222656 -8.539062 12.765625 -9.375 C 12.304688 -10.21875 11.675781 -10.878906 10.875 -11.359375 C 10.070312 -11.835938 9.144531 -12.078125 8.09375 -12.078125 L 5.96875 -12.078125 L 5.96875 -12.5625 L 7.578125 -12.5625 C 8.398438 -12.5625 9.171875 -12.75 9.890625 -13.125 C 10.617188 -13.5 11.210938 -14.082031 11.671875 -14.875 C 12.128906 -15.664062 12.359375 -16.675781 12.359375 -17.90625 C 12.359375 -19.46875 11.859375 -20.660156 10.859375 -21.484375 C 9.867188 -22.304688 8.675781 -22.71875 7.28125 -22.71875 C 6.113281 -22.71875 5.050781 -22.375 4.09375 -21.6875 C 3.144531 -21 2.488281 -20.015625 2.125 -18.734375 L 1.78125 -18.84375 C 2.007812 -19.78125 2.421875 -20.664062 3.015625 -21.5 C 3.609375 -22.332031 4.394531 -23.015625 5.375 -23.546875 C 6.363281 -24.085938 7.546875 -24.359375 8.921875 -24.359375 C 10.109375 -24.359375 11.164062 -24.117188 12.09375 -23.640625 C 13.019531 -23.160156 13.75 -22.503906 14.28125 -21.671875 C 14.820312 -20.835938 15.09375 -19.859375 15.09375 -18.734375 C 15.09375 -17.203125 14.617188 -15.890625 13.671875 -14.796875 C 12.722656 -13.710938 11.378906 -12.96875 9.640625 -12.5625 L 9.640625 -12.53125 C 11.703125 -12.4375 13.335938 -11.820312 14.546875 -10.6875 C 15.753906 -9.550781 16.359375 -8.09375 16.359375 -6.3125 C 16.359375 -4.988281 16.050781 -3.828125 15.4375 -2.828125 C 14.820312 -1.835938 13.953125 -1.0625 12.828125 -0.5 C 11.710938 0.0625 10.410156 0.34375 8.921875 0.34375 Z M 8.921875 0.34375 "/></g></g></g><g fill="currentColor" fill-opacity="1"><g transform="translate(510.818905, 32.052379)"><g><path d="M 2.75 -1.859375 C 2.75 -2.316406 2.925781 -2.734375 3.28125 -3.109375 C 3.632812 -3.484375 4.109375 -3.671875 4.703125 -3.671875 C 5.222656 -3.671875 5.65625 -3.484375 6 -3.109375 C 6.34375 -2.734375 6.515625 -2.316406 6.515625 -1.859375 C 6.515625 -1.347656 6.34375 -0.890625 6 -0.484375 C 5.65625 -0.0859375 5.222656 0.109375 4.703125 0.109375 C 4.109375 0.109375 3.632812 -0.0859375 3.28125 -0.484375 C 2.925781 -0.890625 2.75 -1.347656 2.75 -1.859375 Z M 2.75 -1.859375 "/></g></g></g><g fill="currentColor" fill-opacity="1"><g transform="translate(525.160253, 32.052379)"><g><path d="M 8.921875 0.34375 C 7.367188 0.34375 6.070312 0.078125 5.03125 -0.453125 C 3.988281 -0.992188 3.160156 -1.6875 2.546875 -2.53125 C 1.941406 -3.382812 1.492188 -4.28125 1.203125 -5.21875 L 1.515625 -5.359375 C 2.054688 -3.890625 2.921875 -2.820312 4.109375 -2.15625 C 5.304688 -1.5 6.632812 -1.171875 8.09375 -1.171875 C 8.96875 -1.171875 9.8125 -1.363281 10.625 -1.75 C 11.4375 -2.132812 12.109375 -2.726562 12.640625 -3.53125 C 13.179688 -4.332031 13.453125 -5.351562 13.453125 -6.59375 C 13.453125 -7.613281 13.222656 -8.539062 12.765625 -9.375 C 12.304688 -10.21875 11.675781 -10.878906 10.875 -11.359375 C 10.070312 -11.835938 9.144531 -12.078125 8.09375 -12.078125 L 5.96875 -12.078125 L 5.96875 -12.5625 L 7.578125 -12.5625 C 8.398438 -12.5625 9.171875 -12.75 9.890625 -13.125 C 10.617188 -13.5 11.210938 -14.082031 11.671875 -14.875 C 12.128906 -15.664062 12.359375 -16.675781 12.359375 -17.90625 C 12.359375 -19.46875 11.859375 -20.660156 10.859375 -21.484375 C 9.867188 -22.304688 8.675781 -22.71875 7.28125 -22.71875 C 6.113281 -22.71875 5.050781 -22.375 4.09375 -21.6875 C 3.144531 -21 2.488281 -20.015625 2.125 -18.734375 L 1.78125 -18.84375 C 2.007812 -19.78125 2.421875 -20.664062 3.015625 -21.5 C 3.609375 -22.332031 4.394531 -23.015625 5.375 -23.546875 C 6.363281 -24.085938 7.546875 -24.359375 8.921875 -24.359375 C 10.109375 -24.359375 11.164062 -24.117188 12.09375 -23.640625 C 13.019531 -23.160156 13.75 -22.503906 14.28125 -21.671875 C 14.820312 -20.835938 15.09375 -19.859375 15.09375 -18.734375 C 15.09375 -17.203125 14.617188 -15.890625 13.671875 -14.796875 C 12.722656 -13.710938 11.378906 -12.96875 9.640625 -12.5625 L 9.640625 -12.53125 C 11.703125 -12.4375 13.335938 -11.820312 14.546875 -10.6875 C 15.753906 -9.550781 16.359375 -8.09375 16.359375 -6.3125 C 16.359375 -4.988281 16.050781 -3.828125 15.4375 -2.828125 C 14.820312 -1.835938 13.953125 -1.0625 12.828125 -0.5 C 11.710938 0.0625 10.410156 0.34375 8.921875 0.34375 Z M 8.921875 0.34375 "/></g></g></g><g fill="currentColor" fill-opacity="1"><g transform="translate(548.490744, 32.052379)"><g><path d="M 8.125 -24.5 L 8.890625 -24.5 L 8.890625 0 L 6.140625 0 L 6.140625 -21.4375 C 6.023438 -21.300781 5.800781 -21.085938 5.46875 -20.796875 C 5.132812 -20.515625 4.757812 -20.195312 4.34375 -19.84375 C 3.9375 -19.488281 3.535156 -19.148438 3.140625 -18.828125 C 2.742188 -18.515625 2.414062 -18.253906 2.15625 -18.046875 L 1.921875 -18.421875 C 2.304688 -18.722656 2.804688 -19.160156 3.421875 -19.734375 C 4.046875 -20.304688 4.6875 -20.910156 5.34375 -21.546875 C 6.007812 -22.191406 6.597656 -22.785156 7.109375 -23.328125 C 7.628906 -23.878906 7.96875 -24.269531 8.125 -24.5 Z M 8.125 -24.5 "/></g></g></g><g fill="currentColor" fill-opacity="1"><g transform="translate(566.571857, 32.052379)"><g><path d="M 3.390625 -11.9375 L 4.90625 -24.015625 L 15.75 -24.015625 L 15.75 -21.28125 L 5.109375 -21.28125 L 4.15625 -13.96875 C 5.113281 -14.351562 6.234375 -14.546875 7.515625 -14.546875 C 8.472656 -14.546875 9.441406 -14.414062 10.421875 -14.15625 C 11.410156 -13.894531 12.320312 -13.476562 13.15625 -12.90625 C 13.988281 -12.332031 14.65625 -11.582031 15.15625 -10.65625 C 15.664062 -9.726562 15.921875 -8.585938 15.921875 -7.234375 C 15.921875 -5.679688 15.570312 -4.332031 14.875 -3.1875 C 14.175781 -2.039062 13.238281 -1.164062 12.0625 -0.5625 C 10.882812 0.0390625 9.585938 0.34375 8.171875 0.34375 C 6.890625 0.34375 5.640625 0.015625 4.421875 -0.640625 C 3.210938 -1.304688 2.171875 -2.351562 1.296875 -3.78125 L 1.609375 -4.125 C 2.179688 -3.226562 2.832031 -2.550781 3.5625 -2.09375 C 4.300781 -1.632812 5.03125 -1.328125 5.75 -1.171875 C 6.46875 -1.023438 7.09375 -0.953125 7.625 -0.953125 C 9.15625 -0.953125 10.429688 -1.453125 11.453125 -2.453125 C 12.484375 -3.453125 13 -4.863281 13 -6.6875 C 13 -8.039062 12.644531 -9.128906 11.9375 -9.953125 C 11.226562 -10.773438 10.34375 -11.367188 9.28125 -11.734375 C 8.21875 -12.097656 7.125 -12.28125 6 -12.28125 C 5.539062 -12.28125 5.085938 -12.25 4.640625 -12.1875 C 4.203125 -12.132812 3.785156 -12.050781 3.390625 -11.9375 Z M 3.390625 -11.9375 "/></g></g></g></g></g></svg>